<svg width="92" height="38" viewBox="0 0 92 38" fill="none" xmlns="http://www.w3.org/2000/svg">
<path d="M21.34 13.44H15.94V25H13.2V11H21.34V13.44ZM25.4355 17.3H23.4555C23.3755 18.2467 23.2821 19.1867 23.1755 20.12C23.0688 21.0533 22.8955 21.8933 22.6555 22.64C22.4288 23.3733 22.1155 23.9733 21.7155 24.44C21.3155 24.8933 20.7955 25.12 20.1555 25.12C19.3821 25.12 18.8355 25.02 18.5155 24.82L18.8355 22.66C19.0488 22.74 19.2488 22.78 19.4355 22.78C19.7021 22.78 19.9355 22.6667 20.1355 22.44C20.3355 22.2133 20.5021 21.8067 20.6355 21.22C20.7821 20.6333 20.8955 19.84 20.9755 18.84C21.0688 17.8267 21.1355 16.5467 21.1755 15H28.0355V25H25.4355V17.3ZM30.2284 15.58C30.7618 15.34 31.3951 15.1533 32.1284 15.02C32.8618 14.8733 33.6284 14.8 34.4284 14.8C35.1218 14.8 35.7018 14.8867 36.1684 15.06C36.6351 15.22 37.0018 15.4533 37.2684 15.76C37.5484 16.0667 37.7418 16.4333 37.8484 16.86C37.9684 17.2867 38.0284 17.7667 38.0284 18.3C38.0284 18.8867 38.0084 19.48 37.9684 20.08C37.9284 20.6667 37.9018 21.2467 37.8884 21.82C37.8884 22.3933 37.9084 22.9533 37.9484 23.5C37.9884 24.0333 38.0884 24.54 38.2484 25.02H36.1284L35.7084 23.64H35.6084C35.3418 24.0533 34.9684 24.4133 34.4884 24.72C34.0218 25.0133 33.4151 25.16 32.6684 25.16C32.2018 25.16 31.7818 25.0933 31.4084 24.96C31.0351 24.8133 30.7151 24.6133 30.4484 24.36C30.1818 24.0933 29.9751 23.7867 29.8284 23.44C29.6818 23.08 29.6084 22.68 29.6084 22.24C29.6084 21.6267 29.7418 21.1133 30.0084 20.7C30.2884 20.2733 30.6818 19.9333 31.1884 19.68C31.7084 19.4133 32.3218 19.2333 33.0284 19.14C33.7484 19.0333 34.5484 19 35.4284 19.04C35.5218 18.2933 35.4684 17.76 35.2684 17.44C35.0684 17.1067 34.6218 16.94 33.9284 16.94C33.4084 16.94 32.8551 16.9933 32.2684 17.1C31.6951 17.2067 31.2218 17.3467 30.8484 17.52L30.2284 15.58ZM33.5284 23.02C34.0484 23.02 34.4618 22.9067 34.7684 22.68C35.0751 22.44 35.3018 22.1867 35.4484 21.92V20.62C35.0351 20.58 34.6351 20.5733 34.2484 20.6C33.8751 20.6267 33.5418 20.6867 33.2484 20.78C32.9551 20.8733 32.7218 21.0067 32.5484 21.18C32.3751 21.3533 32.2884 21.5733 32.2884 21.84C32.2884 22.2133 32.3951 22.5067 32.6084 22.72C32.8351 22.92 33.1418 23.02 33.5284 23.02ZM40.2103 15.02C40.677 14.98 41.237 14.94 41.8903 14.9C42.557 14.86 43.2703 14.84 44.0303 14.84C45.497 14.84 46.537 15.0533 47.1503 15.48C47.777 15.8933 48.0903 16.52 48.0903 17.36C48.0903 17.8267 47.957 18.28 47.6903 18.72C47.4236 19.16 47.0036 19.48 46.4303 19.68V19.76C47.1503 19.92 47.6703 20.2067 47.9903 20.62C48.3103 21.02 48.4703 21.54 48.4703 22.18C48.4703 23.18 48.0836 23.9267 47.3103 24.42C46.5503 24.9133 45.3236 25.16 43.6303 25.16C43.0703 25.16 42.477 25.14 41.8503 25.1C41.2236 25.0733 40.677 25.0333 40.2103 24.98V15.02ZM42.7503 23C42.937 23.0267 43.1103 23.0467 43.2703 23.06C43.4303 23.0733 43.6303 23.08 43.8703 23.08C44.5903 23.08 45.1036 22.98 45.4103 22.78C45.717 22.58 45.8703 22.2733 45.8703 21.86C45.8703 21.5133 45.737 21.2333 45.4703 21.02C45.217 20.7933 44.757 20.68 44.0903 20.68H42.7503V23ZM44.1303 19.08C44.557 19.08 44.9036 18.98 45.1703 18.78C45.4503 18.5667 45.5903 18.3 45.5903 17.98C45.5903 17.6333 45.4703 17.3733 45.2303 17.2C45.0036 17.0133 44.5836 16.92 43.9703 16.92C43.6636 16.92 43.417 16.9267 43.2303 16.94C43.057 16.9533 42.897 16.9667 42.7503 16.98V19.08H44.1303ZM56.168 21.08H52.908V25H50.308V15H52.908V18.76H56.168V15H58.768V25H56.168V21.08ZM60.9902 15.58C61.5235 15.34 62.1568 15.1533 62.8902 15.02C63.6235 14.8733 64.3902 14.8 65.1902 14.8C65.8835 14.8 66.4635 14.8867 66.9302 15.06C67.3968 15.22 67.7635 15.4533 68.0302 15.76C68.3102 16.0667 68.5035 16.4333 68.6102 16.86C68.7302 17.2867 68.7902 17.7667 68.7902 18.3C68.7902 18.8867 68.7702 19.48 68.7302 20.08C68.6902 20.6667 68.6635 21.2467 68.6502 21.82C68.6502 22.3933 68.6702 22.9533 68.7102 23.5C68.7502 24.0333 68.8502 24.54 69.0102 25.02H66.8902L66.4702 23.64H66.3702C66.1035 24.0533 65.7302 24.4133 65.2502 24.72C64.7835 25.0133 64.1768 25.16 63.4302 25.16C62.9635 25.16 62.5435 25.0933 62.1702 24.96C61.7968 24.8133 61.4768 24.6133 61.2102 24.36C60.9435 24.0933 60.7368 23.7867 60.5902 23.44C60.4435 23.08 60.3702 22.68 60.3702 22.24C60.3702 21.6267 60.5035 21.1133 60.7702 20.7C61.0502 20.2733 61.4435 19.9333 61.9502 19.68C62.4702 19.4133 63.0835 19.2333 63.7902 19.14C64.5102 19.0333 65.3102 19 66.1902 19.04C66.2835 18.2933 66.2302 17.76 66.0302 17.44C65.8302 17.1067 65.3835 16.94 64.6902 16.94C64.1702 16.94 63.6168 16.9933 63.0302 17.1C62.4568 17.2067 61.9835 17.3467 61.6102 17.52L60.9902 15.58ZM64.2902 23.02C64.8102 23.02 65.2235 22.9067 65.5302 22.68C65.8368 22.44 66.0635 22.1867 66.2102 21.92V20.62C65.7968 20.58 65.3968 20.5733 65.0102 20.6C64.6368 20.6267 64.3035 20.6867 64.0102 20.78C63.7168 20.8733 63.4835 21.0067 63.3102 21.18C63.1368 21.3533 63.0502 21.5733 63.0502 21.84C63.0502 22.2133 63.1568 22.5067 63.3702 22.72C63.5968 22.92 63.9035 23.02 64.2902 23.02ZM76.252 21.22L75.052 21.46L73.132 25H70.032L71.972 21.86L72.952 21.12C72.2987 21.0133 71.7587 20.7067 71.332 20.2C70.9054 19.68 70.692 19.0333 70.692 18.26C70.692 17.0467 71.092 16.1533 71.892 15.58C72.7054 15.0067 73.9454 14.72 75.612 14.72C76.252 14.72 76.8454 14.7533 77.392 14.82C77.952 14.8867 78.4387 14.96 78.852 15.04V25H76.252V21.22ZM76.252 19.86V17.1C76.1054 17.0333 75.9454 16.9867 75.772 16.96C75.5987 16.9333 75.432 16.92 75.272 16.92C74.672 16.92 74.2054 17.0467 73.872 17.3C73.5387 17.5533 73.372 17.9333 73.372 18.44C73.372 18.9467 73.552 19.32 73.912 19.56C74.2854 19.8 74.8254 19.9133 75.532 19.9L76.252 19.86Z" fill="#756257"/>
<rect x="1.5" y="1.5" width="89" height="35" rx="8.5" stroke="#83B3D3" stroke-width="3"/>
</svg>
